<svg xmlns="http://www.w3.org/2000/svg" width="67.5" viewBox="0 0 67.5 67.5" height="67.5" version="1.0"><defs><clipPath id="a"><path d="M 2 61 L 11 61 L 11 67.003906 L 2 67.003906 Z M 2 61"/></clipPath><clipPath id="b"><path d="M 12 61 L 20 61 L 20 67.003906 L 12 67.003906 Z M 12 61"/></clipPath><clipPath id="c"><path d="M 21 61 L 29 61 L 29 67.003906 L 21 67.003906 Z M 21 61"/></clipPath></defs><g clip-path="url(#a)"><path fill="#69BCCC" d="M 6.601562 61.5 C 4.527344 61.5 2.851562 63.179688 2.851562 65.25 C 2.851562 67.320312 4.527344 69 6.601562 69 C 8.671875 69 10.351562 67.320312 10.351562 65.25 C 10.351562 63.179688 8.671875 61.5 6.601562 61.5"/></g><path fill="#69BCCC" d="M 6.601562 52.199219 C 4.527344 52.199219 2.851562 53.878906 2.851562 55.949219 C 2.851562 58.019531 4.527344 59.699219 6.601562 59.699219 C 8.671875 59.699219 10.351562 58.019531 10.351562 55.949219 C 10.351562 53.878906 8.671875 52.199219 6.601562 52.199219"/><path fill="#69BCCC" d="M 6.601562 42.898438 C 4.527344 42.898438 2.851562 44.578125 2.851562 46.648438 C 2.851562 48.722656 4.527344 50.398438 6.601562 50.398438 C 8.671875 50.398438 10.351562 48.722656 10.351562 46.648438 C 10.351562 44.578125 8.671875 42.898438 6.601562 42.898438"/><path fill="#69BCCC" d="M 6.601562 33.75 C 4.527344 33.75 2.851562 35.429688 2.851562 37.5 C 2.851562 39.570312 4.527344 41.25 6.601562 41.25 C 8.671875 41.25 10.351562 39.570312 10.351562 37.5 C 10.351562 35.429688 8.671875 33.75 6.601562 33.75"/><g clip-path="url(#b)"><path fill="#69BCCC" d="M 15.75 61.5 C 13.679688 61.5 12 63.179688 12 65.25 C 12 67.320312 13.679688 69 15.75 69 C 17.820312 69 19.5 67.320312 19.5 65.25 C 19.5 63.179688 17.820312 61.5 15.75 61.5"/></g><path fill="#69BCCC" d="M 15.75 52.199219 C 13.679688 52.199219 12 53.878906 12 55.949219 C 12 58.019531 13.679688 59.699219 15.75 59.699219 C 17.820312 59.699219 19.5 58.019531 19.5 55.949219 C 19.5 53.878906 17.820312 52.199219 15.75 52.199219"/><path fill="#69BCCC" d="M 15.75 42.898438 C 13.679688 42.898438 12 44.578125 12 46.648438 C 12 48.722656 13.679688 50.398438 15.75 50.398438 C 17.820312 50.398438 19.5 48.722656 19.5 46.648438 C 19.5 44.578125 17.820312 42.898438 15.75 42.898438"/><path fill="#69BCCC" d="M 15.75 33.75 C 13.679688 33.75 12 35.429688 12 37.5 C 12 39.570312 13.679688 41.25 15.75 41.25 C 17.820312 41.25 19.5 39.570312 19.5 37.5 C 19.5 35.429688 17.820312 33.75 15.75 33.75"/><g clip-path="url(#c)"><path fill="#69BCCC" d="M 24.898438 61.5 C 22.828125 61.5 21.148438 63.179688 21.148438 65.25 C 21.148438 67.320312 22.828125 69 24.898438 69 C 26.972656 69 28.648438 67.320312 28.648438 65.25 C 28.648438 63.179688 26.972656 61.5 24.898438 61.5"/></g><path fill="#69BCCC" d="M 24.898438 52.199219 C 22.828125 52.199219 21.148438 53.878906 21.148438 55.949219 C 21.148438 58.019531 22.828125 59.699219 24.898438 59.699219 C 26.972656 59.699219 28.648438 58.019531 28.648438 55.949219 C 28.648438 53.878906 26.972656 52.199219 24.898438 52.199219"/><path fill="#69BCCC" d="M 24.898438 42.898438 C 22.828125 42.898438 21.148438 44.578125 21.148438 46.648438 C 21.148438 48.722656 22.828125 50.398438 24.898438 50.398438 C 26.972656 50.398438 28.648438 48.722656 28.648438 46.648438 C 28.648438 44.578125 26.972656 42.898438 24.898438 42.898438"/><path fill="#69BCCC" d="M 24.898438 33.75 C 22.828125 33.75 21.148438 35.429688 21.148438 37.5 C 21.148438 39.570312 22.828125 41.25 24.898438 41.25 C 26.972656 41.25 28.648438 39.570312 28.648438 37.5 C 28.648438 35.429688 26.972656 33.75 24.898438 33.75"/></svg>