<svg xmlns="http://www.w3.org/2000/svg" width="224.88" viewBox="0 0 224.88 75" height="75" version="1.0"><defs><clipPath id="a"><path d="M 12 4 L 213 4 L 213 74.980469 L 12 74.980469 Z M 12 4"/></clipPath></defs><g clip-path="url(#a)"><path fill="#E3EAF0" d="M 112.359375 204.910156 C 85.660156 204.910156 60.515625 194.519531 41.648438 175.609375 C 22.742188 156.742188 12.351562 131.601562 12.351562 104.898438 C 12.351562 78.199219 22.742188 53.058594 41.648438 34.191406 C 60.515625 15.28125 85.660156 4.890625 112.359375 4.890625 C 139.0625 4.890625 164.203125 15.28125 183.070312 34.191406 C 201.976562 53.097656 212.371094 78.199219 212.371094 104.898438 C 212.371094 131.601562 201.976562 156.742188 183.070312 175.609375 C 164.203125 194.519531 139.0625 204.910156 112.359375 204.910156 Z M 112.359375 10.886719 C 87.257812 10.886719 63.632812 20.679688 45.886719 38.425781 C 28.140625 56.175781 18.347656 79.796875 18.347656 104.902344 C 18.347656 130.003906 28.140625 153.625 45.886719 171.375 C 63.632812 189.121094 87.257812 198.914062 112.359375 198.914062 C 137.460938 198.914062 161.085938 189.121094 178.832031 171.375 C 196.582031 153.625 206.375 130.003906 206.375 104.902344 C 206.375 79.796875 196.582031 56.175781 178.832031 38.425781 C 161.085938 20.679688 137.460938 10.886719 112.359375 10.886719 Z M 112.359375 10.886719"/></g></svg>