<svg xmlns="http://www.w3.org/2000/svg" width="135" viewBox="0 0 135 33.75" height="33.75" version="1.0"><defs><clipPath id="a"><path d="M 0.496094 0 L 61 0 L 61 33.5 L 0.496094 33.5 Z M 0.496094 0"/></clipPath><clipPath id="b"><path d="M 0.496094 0 L 82 0 L 82 33.5 L 0.496094 33.5 Z M 0.496094 0"/></clipPath><clipPath id="c"><path d="M 9 0 L 101 0 L 101 33.5 L 9 33.5 Z M 9 0"/></clipPath><clipPath id="d"><path d="M 28 0 L 120 0 L 120 33.5 L 28 33.5 Z M 28 0"/></clipPath><clipPath id="e"><path d="M 47 0 L 134.503906 0 L 134.503906 33.5 L 47 33.5 Z M 47 0"/></clipPath><clipPath id="f"><path d="M 65 0 L 134.503906 0 L 134.503906 33.5 L 65 33.5 Z M 65 0"/></clipPath><clipPath id="g"><path d="M 84 0 L 134.503906 0 L 134.503906 33.5 L 84 33.5 Z M 84 0"/></clipPath></defs><g clip-path="url(#a)"><path stroke-linecap="round" transform="rotate(-45 36.726 6.486) scale(5.92642 5.95588)" fill="none" d="M 0.50003 0.00000975267 L 5.029315 0.00000975267" stroke="#F8C8C4"/></g><g clip-path="url(#b)"><path transform="rotate(-135 29.901 3.94) scale(5.92642 5.95588)" fill="none" d="M 0.000295186 0.0000956019 L 5.529304 -0.000368164" stroke="#F8C8C4"/></g><g clip-path="url(#c)"><path transform="rotate(-45 55.22 -38.671) scale(5.92642 5.95588)" fill="none" d="M 0.000291562 0.00000991067 L 5.5293 -0.000453855" stroke="#F8C8C4"/></g><g clip-path="url(#d)"><path transform="rotate(-135 48.513 -3.77) scale(5.92642 5.95588)" fill="none" d="M 0.0000205775 0.000368852 L 5.529029 -0.0000949145" stroke="#F8C8C4"/></g><g clip-path="url(#e)"><path transform="rotate(-45 73.832 -83.605) scale(5.92642 5.95588)" fill="none" d="M 0.000100099 -0.000180606 L 5.529575 -0.000180606" stroke="#F8C8C4"/></g><g clip-path="url(#f)"><path transform="rotate(-135 67.108 -11.472) scale(5.92642 5.95588)" fill="none" d="M 0.000152618 0.000237464 L 5.529162 -0.000226302" stroke="#F8C8C4"/></g><g clip-path="url(#g)"><path transform="rotate(-45 92.396 -128.423) scale(5.92642 5.95588)" fill="none" d="M 0.000179565 -0.000101532 L 5.529655 -0.000101532" stroke="#F8C8C4"/></g></svg>